<?xml version="1.0" standalone="no"?><!DOCTYPE svg PUBLIC "-//W3C//DTD SVG 1.1//EN" "http://www.w3.org/Graphics/SVG/1.1/DTD/svg11.dtd"><svg t="1557662083812" class="icon" style="" viewBox="0 0 1024 1024" version="1.1" xmlns="http://www.w3.org/2000/svg" p-id="2945" xmlns:xlink="http://www.w3.org/1999/xlink" width="200" height="200"><defs><style type="text/css"></style></defs><path d="M968.142328 482.698519q-0.928432-24.391225-3.780043-48.450867c-16.658716-90.283343-85.986031-167.714539-184.359992-193.007669-102.432534-26.327668-207.013723 11.353392-267.627044 87.537838-60.560268-76.768031-165.55262-114.873517-268.383053-88.439743C145.551919 265.644471 76.237867 343.062405 59.579151 433.345747Q56.68775 457.405389 55.799108 481.809878a616.385748 616.385748 0 0 0 22.547625 189.665315c34.935555 125.059738 106.10647 231.524318 199.70564 311.820389l0.132633-0.15916a163.457017 163.457017 0 0 0 148.204213 34.696816A158.443486 158.443486 0 0 0 511.619241 962.92314a158.37717 158.37717 0 0 0 85.972767 55.825266 163.457017 163.457017 0 0 0 148.204212-34.736605l0.132633 0.159159c93.63896-80.282808 164.783348-186.760651 199.70564-311.820389a616.385748 616.385748 0 0 0 22.507835-189.652052z" fill="#ffffff" p-id="2946"></path><path d="M469.441919 979.07785z" fill="#ffffff" p-id="2947"></path><path d="M501.008594 236.425402a237.797863 237.797863 0 0 0 3.780043 42.309955 237.797863 237.797863 0 0 0 42.309955 3.780043A236.590902 236.590902 0 0 0 779.750291 3.786966 236.590902 236.590902 0 0 0 501.008594 236.425402z" fill="#ffffff" p-id="2948"></path><path d="M501.008594 236.730458a154.066595 154.066595 0 0 1-2.453712 27.415259 153.284059 153.284059 0 0 1-178.112974-178.126236A153.284059 153.284059 0 0 1 501.008594 236.730458z" fill="#ffffff" p-id="2949"></path><path d="M146.692563 523.178138a6.631654 6.631654 0 0 1-6.631654-7.427453c9.284316-77.033297 46.421581-123.348771 75.958969-148.748008 32.110471-27.534629 61.820282-36.686312 63.067033-37.057685a6.631654 6.631654 0 0 1 3.833097 12.692987c-0.530532 0.15916-28.82117 9.032313-58.716668 34.829449C184.121621 412.0714 160.247665 459.12962 153.271165 517.275965a6.631654 6.631654 0 0 1-6.578602 5.902173zM540.029248 258.641444a6.631654 6.631654 0 0 1-5.782803-9.867901c0.769272-1.326331 19.218534-34.11323 53.835771-76.025286 31.964574-38.702335 84.235274-92.577895 151.692462-129.489684a6.631654 6.631654 0 0 1 6.366388 11.631922c-125.563744 68.703939-199.58627 199.042475-200.275962 200.355542a6.631654 6.631654 0 0 1-5.835856 3.395407zM475.039035 252.00979a6.631654 6.631654 0 0 1-5.809329-3.435197c-0.490742-0.901905-50.122044-89.95176-111.013894-117.871025a6.631654 6.631654 0 1 1 5.530799-12.056348c27.388733 12.54709 55.440631 37.137265 83.386422 73.253255a427.410125 427.410125 0 0 1 33.728595 50.26794 6.631654 6.631654 0 0 1-5.796066 9.828112z" fill="#ffffff" p-id="2950"></path></svg>