<?xml version="1.0" standalone="no"?>
<!DOCTYPE svg PUBLIC "-//W3C//DTD SVG 1.1//EN" "http://www.w3.org/Graphics/SVG/1.1/DTD/svg11.dtd">
<svg t="1557504712102" class="icon" style="" viewBox="0 0 1024 1024" version="1.1" xmlns="http://www.w3.org/2000/svg" p-id="2669" xmlns:xlink="http://www.w3.org/1999/xlink" width="200" height="200"><defs><style type="text/css"></style></defs><path d="M474.6 624.4h75v262.4h-75zM512.4 549.4l34.2-33c52.4-50.6 81.4-118.6 79.2-186.4-2-63.4-29.8-121.2-78.6-163l-35.2-30L477.8 170c-52.4 50.6-81.4 118.6-79.2 186.4 2 63.4 29.8 121.2 78.6 163l35.2 30zM182.6 400L140 402.6 137.4 444c-4 61.6 16.4 118.2 57.4 159.4 37.4 37.6 88.6 58.4 144.2 58.4 5 0 57.4-3.4 57.4-3.4l2.6-41.2c4-61.6-16.4-118.2-57.4-159.4-40.6-41-97.8-62-159-57.8zM886.6 444l-2.6-41.2-42.6-2.8c-61.2-4-118.2 17-159 58-40.8 41.2-61.2 97.8-57.4 159.4l2.6 41.2s52.6 3.4 57.4 3.4c55.6 0 106.6-20.8 144-58.4 41-41.4 61.4-98 57.6-159.6z" p-id="2670" fill="#ffffff"></path></svg>