<?xml version="1.0" standalone="no"?><!DOCTYPE svg PUBLIC "-//W3C//DTD SVG 1.1//EN" "http://www.w3.org/Graphics/SVG/1.1/DTD/svg11.dtd"><svg t="1557745367448" class="icon" style="" viewBox="0 0 1024 1024" version="1.1" xmlns="http://www.w3.org/2000/svg" p-id="1982" xmlns:xlink="http://www.w3.org/1999/xlink" width="200" height="200"><defs><style type="text/css"></style></defs><path d="M1023.969882 512a29.334588 29.334588 0 0 1-29.244235 29.244235H541.244235v453.481412a29.334588 29.334588 0 0 1-29.244235 29.244235 29.334588 29.334588 0 0 1-29.244235-29.244235V541.244235H29.244235A29.334588 29.334588 0 0 1 0 512c0-16.082824 13.161412-29.244235 29.244235-29.244235h453.481412V29.244235c0-16.082824 13.161412-29.244235 29.274353-29.244235 16.082824 0 29.244235 13.161412 29.244235 29.244235v453.481412h453.481412c16.082824 0 29.244235 13.161412 29.244235 29.274353z m0 0" fill="#fa631c" p-id="1983"></path></svg>