<?xml version="1.0" standalone="no"?><!DOCTYPE svg PUBLIC "-//W3C//DTD SVG 1.1//EN" "http://www.w3.org/Graphics/SVG/1.1/DTD/svg11.dtd"><svg t="1557809061172" class="icon" style="" viewBox="0 0 1024 1024" version="1.1" xmlns="http://www.w3.org/2000/svg" p-id="3132" xmlns:xlink="http://www.w3.org/1999/xlink" width="200" height="200"><defs><style type="text/css"></style></defs><path d="M380.342857 80.457143v299.885714H80.457143V80.457143h299.885714z m0-80.457143H80.457143C36.571429 0 0 36.571429 0 80.457143v299.885714c0 43.885714 36.571429 80.457143 80.457143 80.457143h299.885714c43.885714 0 80.457143-36.571429 80.457143-80.457143V80.457143C460.8 36.571429 424.228571 0 380.342857 0z m563.2 80.457143v299.885714H643.657143V80.457143h299.885714z m0-80.457143H643.657143c-43.885714 0-80.457143 36.571429-80.457143 80.457143v299.885714c0 43.885714 36.571429 80.457143 80.457143 80.457143h299.885714c43.885714 0 80.457143-36.571429 80.457143-80.457143V80.457143c0-43.885714-36.571429-80.457143-80.457143-80.457143zM380.342857 643.657143v299.885714H80.457143V643.657143h299.885714z m0-80.457143H80.457143C36.571429 563.2 0 599.771429 0 643.657143v299.885714c0 43.885714 36.571429 80.457143 80.457143 80.457143h299.885714c43.885714 0 80.457143-36.571429 80.457143-80.457143V643.657143c0-43.885714-36.571429-80.457143-80.457143-80.457143z m563.2 80.457143v299.885714H643.657143V643.657143h299.885714z m0-80.457143H643.657143c-43.885714 0-80.457143 36.571429-80.457143 80.457143v299.885714c0 43.885714 36.571429 80.457143 80.457143 80.457143h299.885714c43.885714 0 80.457143-36.571429 80.457143-80.457143V643.657143c0-43.885714-36.571429-80.457143-80.457143-80.457143z" p-id="3133" fill="#8a8a8a"></path></svg>