<?xml version="1.0" standalone="no"?><!DOCTYPE svg PUBLIC "-//W3C//DTD SVG 1.1//EN" "http://www.w3.org/Graphics/SVG/1.1/DTD/svg11.dtd"><svg t="1557809116101" class="icon" style="" viewBox="0 0 1024 1024" version="1.1" xmlns="http://www.w3.org/2000/svg" p-id="3663" xmlns:xlink="http://www.w3.org/1999/xlink" width="200" height="200"><defs><style type="text/css"></style></defs><path d="M322.954707 41.703356h-197.483316A125.072767 125.072767 0 0 0 0.398624 168.238963V365.722279a125.804187 125.804187 0 0 0 125.072767 129.461285h197.483316A126.535606 126.535606 0 0 0 448.758894 365.722279V168.238963A125.804187 125.804187 0 0 0 322.954707 41.703356z m0 528.816436h-197.483316A125.804187 125.804187 0 0 0 0.398624 697.055399v200.408995A125.804187 125.804187 0 0 0 125.471391 1024h197.483316a126.535606 126.535606 0 0 0 125.804187-126.535606V697.055399A125.804187 125.804187 0 0 0 322.954707 570.519792z m663.397659-392.040954L846.651205 37.314838a123.609928 123.609928 0 0 0-177.003565 0L529.94648 178.478838a127.267026 127.267026 0 0 0 0 179.197824l139.70116 141.89542a125.072767 125.072767 0 0 0 177.003565 0l139.701161-141.89542a126.535606 126.535606 0 0 0 0-179.197824zM857.622501 570.519792H658.676345a125.804187 125.804187 0 0 0-124.341347 126.535607v200.408995A125.804187 125.804187 0 0 0 658.676345 1024h198.214736a125.804187 125.804187 0 0 0 125.072767-126.535606V697.055399a125.804187 125.804187 0 0 0-124.341347-126.535607z" p-id="3664" fill="#ffffff"></path></svg>